<svg xmlns="http://www.w3.org/2000/svg" width="20" height="20" viewBox="0 0 20 20" fill="none">
  <path fill-rule="evenodd" clip-rule="evenodd" d="M4.21917 17.9058C3.69298 17.555 3.23644 17.1689 2.81402 16.7464C1.09047 14.9874 0 12.5247 0 9.85122C0 4.39786 4.39786 0 9.85122 0C15.3046 0 19.7024 4.39786 19.7024 9.85122C19.7024 12.5239 18.6483 14.9499 16.8908 16.7441C16.4303 17.1689 15.972 17.5564 15.48 17.908C13.8961 18.9987 11.9616 19.6667 9.85122 19.6667C7.73851 19.6667 5.80463 19.033 4.22334 17.9086L4.21917 17.9058ZM4.11043 16.3141L4.07857 16.4184L4.16137 16.4894C5.6924 17.8017 7.66223 18.6046 9.85081 18.6047C12.04 18.6047 14.0093 17.8017 15.5752 16.4907L15.6599 16.4198L15.6276 16.3141C15.2136 14.9592 13.9704 13.9779 12.4986 13.9779H7.23941C5.76752 13.9779 4.52444 14.9592 4.11043 16.3141ZM16.3924 15.2924L16.4386 15.3847H16.6216L16.6716 15.3224C17.8749 13.8274 18.6047 11.9304 18.6047 9.85122C18.6047 5.03646 14.666 1.09779 9.85122 1.09779C5.03646 1.09779 1.09779 5.03646 1.09779 9.85122C1.09779 11.9306 1.82769 13.8284 3.06819 15.3243L3.23304 15.5231L3.34628 15.291C4.03471 13.8798 5.51606 12.8801 7.23941 12.8801H12.4986C14.1867 12.8801 15.6684 13.8446 16.3924 15.2924ZM5.72451 7.70453C5.72451 5.43522 7.58191 3.57782 9.85122 3.57782C12.1206 3.57782 13.9779 5.43522 13.9779 7.70453C13.9779 9.97385 12.1206 11.8312 9.85122 11.8312C7.58191 11.8312 5.72451 9.97385 5.72451 7.70453ZM6.8223 7.70453C6.8223 9.37082 8.18493 10.7335 9.85122 10.7335C11.5176 10.7335 12.8801 9.37082 12.8801 7.70453C12.8801 6.03824 11.5176 4.67561 9.85122 4.67561C8.18493 4.67561 6.8223 6.03824 6.8223 7.70453Z" fill="#393939"/>
</svg>