<svg width="16" height="16" viewBox="0 0 14 14" fill="none" xmlns="http://www.w3.org/2000/svg">
<path fill-rule="evenodd" clip-rule="evenodd" d="M13.3639 12.3034C13.6567 12.5963 13.6567 13.0712 13.3639 13.3641C13.071 13.657 12.5961 13.657 12.3032 13.3641L6.9999 8.0608L1.6966 13.3641C1.40371 13.657 0.928831 13.657 0.635938 13.3641C0.343045 13.0712 0.343045 12.5963 0.635938 12.3034L5.93923 7.00014L0.63593 1.69683C0.343036 1.40394 0.343036 0.929067 0.63593 0.636174C0.928823 0.34328 1.4037 0.343281 1.69659 0.636174L6.99989 5.93948L12.3032 0.636174C12.5961 0.343281 13.071 0.34328 13.3639 0.636174C13.6568 0.929067 13.6568 1.40394 13.3639 1.69683L8.06055 7.00014L13.3639 12.3034Z" fill="#8E8E93"/>
</svg>